name rise30.6535peak61.5555fall82.9339.mot
datacolumns 19
datarows 27
range 5.71997800000000 5.76330600000000
endheader
time	ground_force1_vx	ground_force1_vy	ground_force1_vz	ground_force1_px	ground_force1_py	ground_force1_pz	ground_force2_vx	ground_force2_vy	ground_force2_vz	ground_force2_px	ground_force2_py	ground_force2_pz	ground_torque1_x	ground_torque1_y	ground_torque1_z	ground_torque2_x	ground_torque2_y	ground_torque2_z	
5.71997800000000	64.44311700000000	783.39964799999996	50.47800000000000	0.32602400000000	0.00000000000000	0.09843500000000	0.00000000000000	0.00000000000000	0.00000000000000	0.00000000000000	0.00000000000000	0.00000000000000	0.00000000000000	18.98664400000000	0.00000000000000	0.00000000000000	0.00000000000000	0.00000000000000	
5.72163700000000	63.78943200000000	785.53224200000000	50.58533000000000	0.32521400000000	0.00000000000000	0.09843200000000	0.00000000000000	0.00000000000000	0.00000000000000	0.00000000000000	0.00000000000000	0.00000000000000	0.00000000000000	19.05154500000000	0.00000000000000	0.00000000000000	0.00000000000000	0.00000000000000	
5.72331400000000	63.13252100000000	787.51089100000002	50.69161400000000	0.32442000000000	0.00000000000000	0.09843100000000	0.00000000000000	0.00000000000000	0.00000000000000	0.00000000000000	0.00000000000000	0.00000000000000	0.00000000000000	19.11763500000000	0.00000000000000	0.00000000000000	0.00000000000000	0.00000000000000	
5.72497200000000	62.47290400000000	789.33524100000000	50.79654100000000	0.32364300000000	0.00000000000000	0.09843000000000	0.00000000000000	0.00000000000000	0.00000000000000	0.00000000000000	0.00000000000000	0.00000000000000	0.00000000000000	19.18462500000000	0.00000000000000	0.00000000000000	0.00000000000000	0.00000000000000	
5.72664200000000	61.81105500000000	791.00516200000004	50.89974200000000	0.32287800000000	0.00000000000000	0.09843100000000	0.00000000000000	0.00000000000000	0.00000000000000	0.00000000000000	0.00000000000000	0.00000000000000	0.00000000000000	19.25219400000000	0.00000000000000	0.00000000000000	0.00000000000000	0.00000000000000	
5.72830700000000	61.14740600000000	792.52075700000000	51.00080500000000	0.32212500000000	0.00000000000000	0.09843300000000	0.00000000000000	0.00000000000000	0.00000000000000	0.00000000000000	0.00000000000000	0.00000000000000	0.00000000000000	19.31999100000000	0.00000000000000	0.00000000000000	0.00000000000000	0.00000000000000	
5.72997500000000	60.48235300000000	793.88236400000005	51.09927200000000	0.32138200000000	0.00000000000000	0.09843600000000	0.00000000000000	0.00000000000000	0.00000000000000	0.00000000000000	0.00000000000000	0.00000000000000	0.00000000000000	19.38763900000000	0.00000000000000	0.00000000000000	0.00000000000000	0.00000000000000	
5.73164300000000	59.81625200000000	795.09056499999997	51.19465100000000	0.32064600000000	0.00000000000000	0.09844100000000	0.00000000000000	0.00000000000000	0.00000000000000	0.00000000000000	0.00000000000000	0.00000000000000	0.00000000000000	19.45473900000000	0.00000000000000	0.00000000000000	0.00000000000000	0.00000000000000	
5.73330500000000	59.14942800000000	796.14618700000005	51.28641900000000	0.31991600000000	0.00000000000000	0.09844700000000	0.00000000000000	0.00000000000000	0.00000000000000	0.00000000000000	0.00000000000000	0.00000000000000	0.00000000000000	19.52087600000000	0.00000000000000	0.00000000000000	0.00000000000000	0.00000000000000	
5.73497100000000	58.48217400000000	797.05030499999998	51.37402900000000	0.31919000000000	0.00000000000000	0.09845500000000	0.00000000000000	0.00000000000000	0.00000000000000	0.00000000000000	0.00000000000000	0.00000000000000	0.00000000000000	19.58561800000000	0.00000000000000	0.00000000000000	0.00000000000000	0.00000000000000	
5.73664400000000	57.81475800000000	797.80424200000004	51.45691400000000	0.31846400000000	0.00000000000000	0.09846400000000	0.00000000000000	0.00000000000000	0.00000000000000	0.00000000000000	0.00000000000000	0.00000000000000	0.00000000000000	19.64852500000000	0.00000000000000	0.00000000000000	0.00000000000000	0.00000000000000	
5.73830800000000	57.14741900000000	798.40957300000002	51.53449500000000	0.31773900000000	0.00000000000000	0.09847500000000	0.00000000000000	0.00000000000000	0.00000000000000	0.00000000000000	0.00000000000000	0.00000000000000	0.00000000000000	19.70914900000000	0.00000000000000	0.00000000000000	0.00000000000000	0.00000000000000	
5.73997300000000	56.48037800000000	798.86811999999998	51.60618700000000	0.31701000000000	0.00000000000000	0.09848800000000	0.00000000000000	0.00000000000000	0.00000000000000	0.00000000000000	0.00000000000000	0.00000000000000	0.00000000000000	19.76704200000000	0.00000000000000	0.00000000000000	0.00000000000000	0.00000000000000	
5.74164500000000	55.81383500000000	799.18195000000003	51.67140400000000	0.31627700000000	0.00000000000000	0.09850200000000	0.00000000000000	0.00000000000000	0.00000000000000	0.00000000000000	0.00000000000000	0.00000000000000	0.00000000000000	19.82175300000000	0.00000000000000	0.00000000000000	0.00000000000000	0.00000000000000	
5.74331100000000	55.14797500000000	799.35337500000003	51.72956400000000	0.31553700000000	0.00000000000000	0.09851800000000	0.00000000000000	0.00000000000000	0.00000000000000	0.00000000000000	0.00000000000000	0.00000000000000	0.00000000000000	19.87284100000000	0.00000000000000	0.00000000000000	0.00000000000000	0.00000000000000	
5.74497600000000	54.48296900000000	799.38494500000002	51.78009600000000	0.31478900000000	0.00000000000000	0.09853500000000	0.00000000000000	0.00000000000000	0.00000000000000	0.00000000000000	0.00000000000000	0.00000000000000	0.00000000000000	19.91987100000000	0.00000000000000	0.00000000000000	0.00000000000000	0.00000000000000	
5.74664200000000	53.81897700000000	799.27944200000002	51.82244600000000	0.31402900000000	0.00000000000000	0.09855400000000	0.00000000000000	0.00000000000000	0.00000000000000	0.00000000000000	0.00000000000000	0.00000000000000	0.00000000000000	19.96242100000000	0.00000000000000	0.00000000000000	0.00000000000000	0.00000000000000	
5.74831200000000	53.15615200000000	799.03987700000005	51.85607800000000	0.31325700000000	0.00000000000000	0.09857500000000	0.00000000000000	0.00000000000000	0.00000000000000	0.00000000000000	0.00000000000000	0.00000000000000	0.00000000000000	20.00008600000000	0.00000000000000	0.00000000000000	0.00000000000000	0.00000000000000	
5.74997600000000	52.49463900000000	798.66947900000002	51.88048600000000	0.31247000000000	0.00000000000000	0.09859800000000	0.00000000000000	0.00000000000000	0.00000000000000	0.00000000000000	0.00000000000000	0.00000000000000	0.00000000000000	20.03247800000000	0.00000000000000	0.00000000000000	0.00000000000000	0.00000000000000	
5.75163900000000	51.83458300000000	798.17168800000002	51.89519000000000	0.31166700000000	0.00000000000000	0.09862300000000	0.00000000000000	0.00000000000000	0.00000000000000	0.00000000000000	0.00000000000000	0.00000000000000	0.00000000000000	20.05923400000000	0.00000000000000	0.00000000000000	0.00000000000000	0.00000000000000	
5.75330800000000	51.17612400000000	797.55014600000004	51.89974800000000	0.31084600000000	0.00000000000000	0.09864900000000	0.00000000000000	0.00000000000000	0.00000000000000	0.00000000000000	0.00000000000000	0.00000000000000	0.00000000000000	20.08001300000000	0.00000000000000	0.00000000000000	0.00000000000000	0.00000000000000	
5.75497000000000	50.51940400000000	796.80868799999996	51.89375600000000	0.31000600000000	0.00000000000000	0.09867700000000	0.00000000000000	0.00000000000000	0.00000000000000	0.00000000000000	0.00000000000000	0.00000000000000	0.00000000000000	20.09450600000000	0.00000000000000	0.00000000000000	0.00000000000000	0.00000000000000	
5.75663700000000	49.86456900000000	795.95132999999998	51.87684800000000	0.30914500000000	0.00000000000000	0.09870700000000	0.00000000000000	0.00000000000000	0.00000000000000	0.00000000000000	0.00000000000000	0.00000000000000	0.00000000000000	20.10243200000000	0.00000000000000	0.00000000000000	0.00000000000000	0.00000000000000	
5.75830400000000	49.21176700000000	794.98225800000000	51.84870900000000	0.30826100000000	0.00000000000000	0.09873900000000	0.00000000000000	0.00000000000000	0.00000000000000	0.00000000000000	0.00000000000000	0.00000000000000	0.00000000000000	20.10354100000000	0.00000000000000	0.00000000000000	0.00000000000000	0.00000000000000	
5.75997400000000	48.56115100000000	793.90581399999996	51.80906600000000	0.30735400000000	0.00000000000000	0.09877200000000	0.00000000000000	0.00000000000000	0.00000000000000	0.00000000000000	0.00000000000000	0.00000000000000	0.00000000000000	20.09762100000000	0.00000000000000	0.00000000000000	0.00000000000000	0.00000000000000	
5.76164100000000	47.91288200000000	792.72649000000001	51.75770000000000	0.30642200000000	0.00000000000000	0.09880700000000	0.00000000000000	0.00000000000000	0.00000000000000	0.00000000000000	0.00000000000000	0.00000000000000	0.00000000000000	20.08449300000000	0.00000000000000	0.00000000000000	0.00000000000000	0.00000000000000	
5.76330600000000	47.26712800000000	791.44890699999996	51.69444100000000	0.30546500000000	0.00000000000000	0.09884400000000	0.00000000000000	0.00000000000000	0.00000000000000	0.00000000000000	0.00000000000000	0.00000000000000	0.00000000000000	20.06401700000000	0.00000000000000	0.00000000000000	0.00000000000000	0.00000000000000	
